# AST/ASF file generated using VICON BodyLanguage
# -----------------------------------------------
:version 1.10
:name VICON
:units
  mass 1.0
  length 0.45
  angle deg
:documentation
   .ast/.asf automatically generated from VICON data using
   VICON BodyBuilder and BodyLanguage model FoxedUp or BRILLIANT.MOD
:root
   order TX TY TZ RX RY RZ
   axis XYZ
   position 0 0 0  
   orientation 0 0 0 
:bonedata
  begin
     id 1 
     name lhipjoint
     direction 0.61886 -0.69539 0.365302 
     length 2.20474 
     axis 0 0 0  XYZ
  end
  begin
     id 2 
     name lfemur
     direction 0.34202 -0.939693 0  
     length 6.65149  
     axis 0 0 20  XYZ
    dof rx ry rz
    limits (-160.0 20.0)
           (-70.0 70.0)
           (-60.0 70.0)
  end
  begin
     id 3 
     name ltibia
     direction 0.34202 -0.939693 0   
     length 6.35814   
     axis 0 0 20   XYZ
    dof rx
    limits (-10.0 170.0)
  end
  begin
     id 4 
     name lfoot
     direction 0.101224 -0.278109 0.955201   
     length 2.18766   
     axis -90 7.62852e-016 20   XYZ
    dof rx rz
    limits (-45.0 90.0)
           (-70.0 20.0)
  end
  begin
     id 5 
     name ltoes
     direction 1.53524e-011 -4.21877e-011 1   
     length 1.09206   
     axis -90 7.62852e-016 20   XYZ
    dof rx
    limits (-90.0 20.0)
  end
  begin
     id 6 
     name rhipjoint
     direction -0.600207 -0.708087 0.371972   
     length 2.1652  
     axis 0 0 0  XYZ 
  end
  begin
     id 7 
     name rfemur
     direction -0.34202 -0.939693 0   
     length 6.54691   
     axis 0 0 -20   XYZ
    dof rx ry rz
    limits (-160.0 20.0)
           (-70.0 70.0)
           (-70.0 60.0)
  end
  begin
     id 8 
     name rtibia
     direction -0.34202 -0.939693 0   
     length 6.37474   
     axis 0 0 -20   XYZ
    dof rx
    limits (-10.0 170.0)
 end
 begin
     id 9 
     name rfoot
     direction -0.111266 -0.3057 0.945604   
     length 2.00903  
     axis -90 -7.62852e-016 -20   XYZ
    dof rx rz
    limits (-45.0 90.0)
           (-20.0 70.0)
  end
  begin
     id 10 
     name rtoes
     direction -1.5362e-011 -4.21913e-011 1   
     length 1.00221   
     axis -90 -7.62852e-016 -20   XYZ
    dof rx
    limits (-90.0 20.0)
  end
  begin
     id 11 
     name lowerback
     direction -0.0224561 0.999731 -0.00577314   
     length 2.10409   
     axis 0 0 0   XYZ
    dof rx ry rz
    limits (-20.0 45.0)
           (-30.0 30.0)
           (-30.0 30.0)
  end
  begin
     id 12 
     name upperback
     direction 0.0213126 0.999185 -0.0342817   
     length 2.09783   
     axis 0 0 0   XYZ
    dof rx ry rz
    limits (-20.0 45.0)
           (-30.0 30.0)
           (-30.0 30.0)
  end
  begin
     id 13 
     name thorax
     direction 0.0312356 0.999036 -0.0308451   
     length 2.09788   
     axis 0 0 0   XYZ
    dof rx ry rz
    limits (-20.0 45.0)
           (-30.0 30.0)
           (-30.0 30.0)
  end
  begin
     id 14 
     name lowerneck
     direction -0.0114419 0.996481 0.0830329   
     length 1.38575   
     axis 0 0 0   XYZ
    dof rx ry rz
    limits (-20.0 45.0)
           (-30.0 30.0)
           (-30.0 30.0)
  end
  begin
     id 15 
     name upperneck
     direction -0.0075675 0.996187 -0.0869092   
     length 1.39401   
     axis 0 0 0   XYZ
    dof rx ry rz
    limits (-20.0 45.0)
           (-30.0 30.0)
           (-30.0 30.0)
  end
  begin
     id 16
     name head
     direction -0.00222073 0.999264 -0.0382974  
     length 1.3964  
     axis 0 0 0   XYZ
    dof rx ry rz
    limits (-20.0 45.0)
           (-30.0 30.0)
           (-30.0 30.0)
  end
  begin
     id 17 
     name lclavicle
     direction 0.965962 0.222138 0.132556  
     length 2.81514  
     axis 0 0 0   XYZ
    dof ry rz
    limits (-20.0 10.0)
           (0.0 20.0)
  end
  begin
     id 18 
     name lhumerus
     direction 1 -4.48972e-011 7.03471e-018   
     length 4.47366   
     axis 180 -30 -90   XYZ
    dof rx ry rz
    limits (-60.0 90.0)
           (-90.0 90.0)
           (-90.0 90.0)
  end
  begin
     id 19
     name lradius
     direction 1 -4.48951e-011 -6.22192e-028   
     length 3.19948   
     axis 180 -30 -90   XYZ
    dof rx
    limits (-10.0 170.0)
  end
  begin
     id 20
     name lwrist
     direction 1 -4.48967e-011 -1.24264e-027   
     length 1.59974   
     axis 1.40095e-015 90 90   XYZ
    dof ry
    limits (-180.0 0.0)
 end
  begin
     id 21 
     name lhand
     direction 1 -4.4897e-011 -2.48528e-027   
     length 0.492667   
     axis 1.58582e-015 90 90   XYZ
    dof rx rz
    limits (-90.0 90.0)
           (-45.0 45.0)
  end
  begin
     id 22 
     name lfingers
     direction 1 -4.48996e-011 -4.97056e-027   
     length 0.397201   
     axis 3.17164e-015 90 90   XYZ
    dof rx
    limits (0.0 90.0)
  end
  begin
     id 23
     name lthumb
     direction 0.707107 -6.34981e-011 0.707107   
     length 0.570303   
     axis -90 45 2.85299e-015   XYZ
    dof rx rz
    limits (-45.0 45.0)
           (-45.0 45.0)
  end
  begin
     id 24 
     name rclavicle
     direction -0.961164 0.229034 0.153972   
     length 3.09348  
     axis 0 0 0   XYZ 
    dof ry rz
    limits (-10.0 20.0)
           (-20.0 0.0)
  end
  begin
     id 25 
     name rhumerus
     direction -1 -4.48971e-011 -9.06263e-028  
     length 4.3269   
     axis 180 30 90   XYZ
    dof rx ry rz
    limits (-90.0 60.0)
           (-90.0 90.0)
           (-90.0 90.0)
  end
  begin
     id 26 
     name rradius
     direction -1 -4.48953e-011 1.44659e-027   
     length 3.1896   
     axis 180 30 90   XYZ
    dof rx
    limits (-10.0 170.0)
  end
  begin
     id 27 
     name rwrist
     direction -1 -4.48988e-011 -1.24264e-027   
     length 1.5948   
     axis 1.40095e-015 -90 -90   XYZ
    dof ry
    limits (-180.0 0.0)
  end
  begin
     id 28
     name rhand
     direction -1 -4.49033e-011 -2.48528e-027   
     length 0.464496   
     axis 1.58582e-015 -90 -90   XYZ
    dof rx rz
    limits (-90.0 90.0)
           (-45.0 45.0)
  end
  begin
     id 29
     name rfingers
     direction -1 -4.48905e-011 -4.97056e-027   
     length 0.374489   
     axis 3.17164e-015 -90 -90   XYZ
    dof rx
    limits (0.0 90.0)
  end
  begin
     id 30
     name rthumb
     direction -0.707107 -6.34909e-011 0.707107   
     length 0.537693   
     axis -90 -45 -2.85299e-015   XYZ
    dof rx rz
    limits (-45.0 45.0)
           (-45.0 45.0)
  end
:hierarchy
  begin
    root lhipjoint rhipjoint lowerback
    lhipjoint lfemur
    lfemur ltibia
    ltibia lfoot
    lfoot ltoes
    rhipjoint rfemur
    rfemur rtibia
    rtibia rfoot
    rfoot rtoes
    lowerback upperback
    upperback thorax
    thorax lowerneck lclavicle rclavicle
    lowerneck upperneck
    upperneck head
    lclavicle lhumerus
    lhumerus lradius
    lradius lwrist
    lwrist lhand lthumb
    lhand lfingers
    rclavicle rhumerus
    rhumerus rradius
    rradius rwrist
    rwrist rhand rthumb
    rhand rfingers
  end

#!OML:ASF G:\acrobat\cartwheel_test 2\Patient 1\Session 2\acrobat4.ASF
:FULLY-SPECIFIED
:DEGREES
79
root 8.09518 14.6606 2.49253 -7.30117 -2.26796 2.29828
lowerback -1.88583 0.0333303 -3.45867
upperback 3.56469 0.124255 1.59042
thorax 4.73773 -0.0973046 3.59856
lowerneck -11.9127 -1.67509 -0.925637
upperneck 11.2573 -1.93586 -1.21231
head 5.34217 -1.07247 -0.384057
rclavicle 1.73502e-014 3.97569e-015
rhumerus 48.4975 -6.5866 -73.5796
rradius 15.9058
rwrist 42.0694
rhand -21.0495 -20.314
rfingers 7.12502
rthumb 5.32653 -50.227
lclavicle 1.73502e-014 3.97569e-015
lhumerus 41.7764 -12.8444 40.413
lradius 28.8339
lwrist 8.3561
lhand -26.4423 1.21004
lfingers 7.12502
lthumb 0.118581 31.1898
rfemur -11.6117 -3.1397 17.6619
rtibia 49.6435
rfoot -22.7325 -17.5475
rtoes -15.0082
lfemur -11.9668 6.99347 -17.4672
ltibia 50.1015
lfoot -26.2765 8.53465
ltoes -14.9587
80
root 8.09879 14.6635 2.49458 -7.27269 -2.26973 2.38591
lowerback -1.94494 0.0255231 -3.59638
upperback 3.58457 0.121984 1.58515
thorax 4.79313 -0.104967 3.67126
lowerneck -11.9692 -1.65701 -0.937503
upperneck 11.3062 -1.9105 -1.19444
head 5.36728 -1.05966 -0.375401
rclavicle -6.36732e-015 -1.03368e-014
rhumerus 48.5274 -6.54268 -73.4451
rradius 15.9336
rwrist 41.9994
rhand -21.0614 -20.4364
rfingers 7.12502
rthumb 5.31504 -50.3498
lclavicle -6.36732e-015 -1.03368e-014
lhumerus 41.7248 -12.6869 40.5347
lradius 28.791
lwrist 8.14892
lhand -26.3 1.15234
lfingers 7.12502
lthumb 0.256008 31.1319
rfemur -11.6167 -3.1784 17.5351
rtibia 49.6271
rfoot -22.7796 -17.5166
rtoes -15.0074
lfemur -11.9587 7.04704 -17.5792
ltibia 50.0442
lfoot -26.2553 8.52035
ltoes -14.7977
81
root 8.10238 14.6662 2.49597 -7.27782 -2.3031 2.43597
lowerback -1.87475 0.0162218 -3.65198
upperback 3.53904 0.109999 1.567
thorax 4.70672 -0.109889 3.68225
lowerneck -11.9159 -1.62783 -0.950029
upperneck 11.3163 -1.87423 -1.16061
head 5.36203 -1.04004 -0.359427
rclavicle 5.73991e-015 -5.56597e-015
rhumerus 47.9718 -4.66468 -70.5989
rradius 16.5057
rwrist 38.701
rhand -20.9406 -20.8454
rfingers 7.12502
rthumb 5.43166 -50.7558
lclavicle 5.73991e-015 -5.56597e-015
lhumerus 41.5699 -12.6918 40.4702
lradius 28.8
lwrist 8.13839
lhand -26.2101 1.06998
lfingers 7.12502
lthumb 0.34283 31.0495
rfemur -11.5946 -3.18353 17.4672
rtibia 49.6221
rfoot -22.7514 -17.5175
rtoes -15.1089
lfemur -11.9262 7.12465 -17.6422
ltibia 50.0071
lfoot -26.2292 8.52004
ltoes -14.7429
82
root 8.10845 14.667 2.49321 -7.24084 -2.33757 2.41297
lowerback -1.77578 0.00132293 -3.60874
upperback 3.47022 0.0844495 1.56649
thorax 4.58035 -0.117039 3.65475
lowerneck -11.916 -1.59347 -0.961781
upperneck 11.3632 -1.82951 -1.13037
head 5.37718 -1.01679 -0.344778
rclavicle 3.516e-015 -9.54166e-015
rhumerus 48.4347 -6.00072 -72.7452
rradius 16.0463
rwrist 41.2658
rhand -20.9798 -20.3998
rfingers 7.12502
rthumb 5.39389 -50.3111
lclavicle 3.516e-015 -9.54166e-015
lhumerus 41.3929 -12.8462 40.1625
lradius 28.9202
lwrist 8.40321
lhand -26.2843 1.28875
lfingers 7.12502
lthumb 0.271206 31.2683
rfemur -11.6514 -3.18505 17.4759
rtibia 49.5944
rfoot -22.6666 -17.485
rtoes -15.247
lfemur -11.9704 7.18237 -17.634
ltibia 50.0036
lfoot -26.2329 8.44217
ltoes -14.7629
83
root 8.1158 14.6676 2.48867 -7.14934 -2.34348 2.36814
lowerback -1.72335 -0.0358076 -3.55373
upperback 3.41051 0.0298726 1.5792
thorax 4.4927 -0.139595 3.63322
lowerneck -12.0123 -1.55085 -0.969074
upperneck 11.426 -1.77348 -1.09522
head 5.41346 -0.9877 -0.329358
rclavicle 9.19379e-015 1.19271e-014
rhumerus 48.7365 -7.08771 -74.5425
rradius 15.6097
rwrist 43.384
rhand -20.9824 -19.9505
rfingers 7.12502
rthumb 5.39132 -49.8619
lclavicle 9.19379e-015 1.19271e-014
lhumerus 41.2074 -12.8415 40.0115
lradius 28.9922
lwrist 8.51846
lhand -26.4618 1.31905
lfingers 7.12502
lthumb 0.0997327 31.2988
rfemur -11.7634 -3.21712 17.4966
rtibia 49.5543
rfoot -22.6521 -17.3997
rtoes -15.2369
lfemur -12.0844 7.2056 -17.6109
ltibia 50.0247
lfoot -26.2675 8.30229
ltoes -14.5155
84
root 8.12122 14.669 2.48521 -7.10038 -2.34246 2.33291
lowerback -1.67119 -0.0331231 -3.5225
upperback 3.39467 0.0303188 1.58242
thorax 4.44622 -0.137067 3.61861
lowerneck -12.1539 -1.54468 -0.94119
upperneck 11.49 -1.77007 -1.0762
head 5.45712 -0.983961 -0.329328
rclavicle 1.32937e-015 -1.98785e-014
rhumerus 48.7695 -7.21096 -74.6167
rradius 15.5486
rwrist 43.4036
rhand -20.9558 -19.9052
rfingers 7.12502
rthumb 5.41703 -49.816
lclavicle 1.32937e-015 -1.98785e-014
lhumerus 41.1833 -12.8163 39.9283
lradius 28.9889
lwrist 8.57287
lhand -26.6037 1.24211
lfingers 7.12502
lthumb -0.0373739 31.2218
rfemur -11.8735 -3.14731 17.4977
rtibia 49.5253
rfoot -22.8835 -17.3211
rtoes -14.606
lfemur -12.1686 7.23078 -17.5979
ltibia 50.0624
lfoot -26.2754 8.284
ltoes -14.447
85
root 8.12528 14.6701 2.48225 -7.10315 -2.37544 2.30102
lowerback -1.61186 0.0133953 -3.50407
upperback 3.42853 0.089462 1.60075
thorax 4.44249 -0.107806 3.63041
lowerneck -12.3756 -1.56596 -0.958984
upperneck 11.5983 -1.7945 -1.05385
head 5.52864 -0.99586 -0.324147
rclavicle -1.66793e-014 8.74653e-015
rhumerus 49.2389 -8.61691 -76.4829
rradius 15.2125
rwrist 45.7678
rhand -21.1666 -19.541
rfingers 7.12502
rthumb 5.21353 -49.4569
lclavicle -1.66793e-014 8.74653e-015
lhumerus 41.2972 -12.7883 39.9094
lradius 28.9318
lwrist 8.60114
lhand -26.6833 1.33344
lfingers 7.12502
lthumb -0.114239 31.3132
rfemur -11.924 -3.04354 17.513
rtibia 49.5365
rfoot -22.8426 -17.3302
rtoes -14.5042
lfemur -12.2042 7.28664 -17.5837
ltibia 50.1027
lfoot -26.247 8.38962
ltoes -14.7139
86
root 8.12859 14.6682 2.47859 -7.1186 -2.42503 2.2567
lowerback -1.53296 0.0516875 -3.47229
upperback 3.45939 0.136321 1.62269
thorax 4.42554 -0.0839346 3.63756
lowerneck -12.4362 -1.56944 -0.994461
upperneck 11.5289 -1.7996 -1.00107
head 5.51785 -0.99576 -0.302361
rclavicle -2.52829e-015 5.56597e-015
rhumerus 50.0293 -10.5879 -79.3889
rradius 14.7195
rwrist 49.3643
rhand -21.3249 -18.9407
rfingers 7.12502
rthumb 5.06063 -48.8602
lclavicle -2.52829e-015 5.56597e-015
lhumerus 41.3557 -12.7675 39.8679
lradius 28.9035
lwrist 8.62838
lhand -26.7017 1.29344
lfingers 7.12502
lthumb -0.132005 31.2731
rfemur -11.8613 -3.07617 17.5896
rtibia 49.5879
rfoot -22.2972 -17.4356
rtoes -15.5286
lfemur -12.2036 7.3523 -17.5308
ltibia 50.1287
lfoot -26.2528 8.37653
ltoes -14.6793
87
root 8.13192 14.6652 2.47471 -7.08769 -2.43738 2.23029
lowerback -1.47584 0.0715407 -3.44762
upperback 3.44985 0.160138 1.62265
thorax 4.38084 -0.070078 3.62439
lowerneck -12.429 -1.57276 -1.02341
upperneck 11.4465 -1.81056 -0.920832
head 5.49181 -0.996065 -0.272814
rclavicle -7.56624e-015 5.56597e-015
rhumerus 50.9863 -12.7163 -82.7163
rradius 14.1864
rwrist 53.3152
rhand -21.3432 -18.323
rfingers 7.12502
rthumb 5.04294 -48.243
lclavicle -7.56624e-015 5.56597e-015
lhumerus 41.3592 -12.7666 39.816
lradius 28.9081
lwrist 8.625
lhand -26.7075 1.31035
lfingers 7.12502
lthumb -0.137624 31.29
rfemur -11.8791 -3.10977 17.6361
rtibia 49.6364
rfoot -21.9568 -17.4882
rtoes -16.1116
lfemur -12.2585 7.3659 -17.5094
ltibia 50.1469
lfoot -26.2814 8.30876
ltoes -14.5451
